<?xml version="1.0" encoding="utf-8"?>
<!-- Generator: Adobe Illustrator 19.0.0, SVG Export Plug-In . SVG Version: 6.00 Build 0)  -->
<svg version="1.1" id="Calque_1" xmlns="http://www.w3.org/2000/svg" xmlns:xlink="http://www.w3.org/1999/xlink" x="0px" y="0px"
	 viewBox="88 153.3 600.1 516.1" style="enable-background:new 88 153.3 600.1 516.1;" xml:space="preserve">
<style type="text/css">
	.st0{opacity:0.5;}
	.st1{opacity:0.77;}
	.st2{fill:#D9D9DA;}
	.st3{fill:#EFEFF0;}
	.st4{opacity:0.2;fill:#62AFBD;enable-background:new    ;}
	.st5{fill:#9E9D98;}
	.st6{fill:none;}
	.st7{fill:url(#SVGID_1_);}
	.st8{fill:url(#SVGID_2_);}
	.st9{fill:url(#SVGID_3_);}
	.st10{fill:#D6D5CA;}
	.st11{fill:#0080CE;}
	.st12{fill:#0086FF;}
	.st13{fill:#4BAFF9;}
	.st14{fill:#FFFCE8;}
	.st15{fill:#FF1F4F;}
	.st16{fill:#31A3F7;}
	.st17{fill:#0586E5;}
	.st18{fill:#1095F9;}
	.st19{fill:url(#SVGID_4_);}
	.st20{fill:url(#SVGID_5_);}
	.st21{fill:#605E60;}
	.st22{fill:#2D374C;}
	.st23{fill:#434C5B;}
	.st24{fill:#002856;}
	.st25{fill:#70696F;}
	.st26{fill:url(#SVGID_6_);}
	.st27{fill:url(#SVGID_7_);}
	.st28{fill:#1C9AF9;}
	.st29{fill:url(#SVGID_8_);}
	.st30{fill:url(#SVGID_9_);}
	.st31{fill:#726F72;}
	.st32{opacity:5.000000e-002;fill:#B9C4D6;enable-background:new    ;}
	.st33{display:none;}
	.st34{display:inline;opacity:0.56;}
	.st35{fill:#FAFAFA;}
	.st36{fill:#FF7A58;}
	.st37{opacity:0.3;fill:#15B8EA;}
	.st38{opacity:0.4;fill:none;stroke:#008DA7;stroke-width:0.5564;stroke-miterlimit:10;}
	.st39{fill:none;stroke:#FAFAFA;stroke-width:0.5564;stroke-miterlimit:10;}
	.st40{opacity:0.2;fill:#005077;}
	.st41{fill:url(#SVGID_10_);}
	.st42{fill:url(#SVGID_11_);}
	.st43{fill:url(#SVGID_12_);}
	.st44{fill:url(#SVGID_13_);}
	.st45{fill:url(#SVGID_14_);}
	.st46{fill:url(#SVGID_15_);}
	.st47{fill:url(#SVGID_16_);}
	.st48{fill:#CCCBC4;}
	.st49{opacity:0.32;fill:url(#SVGID_17_);}
	.st50{fill:#EEEBD4;}
	.st51{fill:url(#SVGID_18_);}
	.st52{fill:none;stroke:#959A8F;stroke-width:1.015;stroke-linecap:round;stroke-miterlimit:10;}
	.st53{fill:#0EE264;}
	.st54{fill:#4BF794;}
	.st55{fill:#5E5050;}
	.st56{fill:#EFEBE9;}
	.st57{fill:#B0BEC5;}
	.st58{fill:#959A8F;}
</style>
<g id="Hero">
</g>
<g id="Section1">
</g>
<g id="Section2">
</g>
<g id="Section3">
</g>
<g id="Section4">
</g>
<g id="Section5">
	<g>
		<g class="st0">
			<g class="st1">
				<polygon class="st2" points="1600,-2218.6 1521.9,-2218.6 1479.3,-2218.6 1479.3,-2175.6 1479.3,-2097.5 1479.3,-2021.7 
					1479.3,-1961.2 1479.3,-1921.3 1504.3,-1921.3 1536.7,-1921.3 1611.9,-1921.3 1611.9,-1997.1 1611.9,-2029.5 1611.9,-2094.3 
					1611.9,-2154.8 1611.9,-2218.6 				"/>
				<polygon class="st2" points="1179.8,-2218.6 1179.8,-2151.6 1179.8,-2032.3 1179.8,-1983.6 1179.8,-1921.3 1225.1,-1921.3 
					1303.2,-1921.3 1313.5,-1921.3 1313.5,-1931.8 1313.5,-2009.9 1313.5,-2116.8 1313.5,-2165.4 1313.5,-2218.6 1247.1,-2218.6 
									"/>
				<polygon class="st2" points="1366.5,-2218.6 1330.1,-2218.6 1330.1,-2181.7 1330.1,-2133.1 1330.1,-2026.2 1330.1,-1948.1 
					1330.1,-1921.3 1379.1,-1921.3 1439.5,-1921.3 1462.7,-1921.3 1462.7,-1944.9 1462.7,-2005.3 1462.7,-2081.2 1462.7,-2159.3 
					1462.7,-2218.6 1415.1,-2218.6 				"/>
			</g>
			<polygon class="st3" points="1313.3,-2218.5 1247.1,-2218.5 1180.2,-2151.6 1180.2,-2032.3 1313.3,-2165.4 			"/>
			<polygon class="st3" points="1313.3,-2116.8 1180.2,-1983.6 1180.2,-1921.7 1225.1,-1921.7 1313.3,-2009.9 			"/>
			<polygon class="st3" points="1329.6,-2218.5 1329.6,-2181.7 1366.5,-2218.5 			"/>
			<polygon class="st3" points="1462.7,-2218.5 1415.1,-2218.5 1329.6,-2133.1 1329.6,-2026.2 1462.7,-2159.3 			"/>
			<polygon class="st3" points="1462.7,-2081.2 1329.6,-1948.1 1329.6,-1921.7 1379.1,-1921.7 1462.7,-2005.3 			"/>
			<polygon class="st3" points="1479,-2218.5 1479,-2175.6 1521.9,-2218.5 			"/>
			<polygon class="st3" points="1612.1,-2218.5 1600,-2218.5 1479,-2097.5 1479,-2021.7 1612.1,-2154.8 			"/>
			<polygon class="st3" points="1612.1,-1997.1 1536.7,-1921.7 1612.1,-1921.7 			"/>
			<polygon class="st3" points="1612.1,-2094.3 1479,-1961.2 1479,-1921.7 1504.3,-1921.7 1612.1,-2029.5 			"/>
		</g>
		<g>
			<path class="st4" d="M1677.4-1783.8h-180.3c-2.8,0-5-2.2-5-5l0,0c0-2.8,2.2-5,5-5h180.3c2.8,0,5,2.2,5,5l0,0
				C1682.4-1786.1,1680.2-1783.8,1677.4-1783.8z"/>
			<g>
				<g>
					<path class="st5" d="M1508.4-1861.6v53c0,12.2,8.2,22.1,18.2,22.1h112.1c10,0,18.2-9.9,18.2-22.1v-53
						c0-12.2-8.2-22.1-18.2-22.1h-112.1C1516.6-1883.7,1508.4-1873.8,1508.4-1861.6z"/>
					<g>
						<path class="st6" d="M1551.4-1795h-26.8c-6.2,0-11.2-6.1-11.2-13.6v-22.7h34.1v22.7C1547.5-1803.5,1549-1798.8,1551.4-1795z"
							/>
						<path class="st6" d="M1547.5-1839.8h-34.1v-21.8c0-7.5,5-13.6,11.2-13.6h26.8c-2.4,3.7-3.9,8.4-3.9,13.6V-1839.8z"/>
						
							<linearGradient id="SVGID_1_" gradientUnits="userSpaceOnUse" x1="1605.204" y1="14527.8145" x2="1552.816" y2="14525.0859" gradientTransform="matrix(1 0 0 1 0 -16384)">
							<stop  offset="5.376340e-002" style="stop-color:#9E9D98"/>
							<stop  offset="1" style="stop-color:#7B7C7F"/>
						</linearGradient>
						<path class="st7" d="M1623.3-1861.6v21.8h-75.8v-21.8c0-5.1,1.5-9.8,3.9-13.6h60.8C1618.3-1875.2,1623.3-1869.1,1623.3-1861.6
							z"/>
						
							<linearGradient id="SVGID_2_" gradientUnits="userSpaceOnUse" x1="1606.1691" y1="14571.835" x2="1553.8" y2="14569.1074" gradientTransform="matrix(1 0 0 1 0 -16384)">
							<stop  offset="5.376340e-002" style="stop-color:#9E9D98"/>
							<stop  offset="1" style="stop-color:#7B7C7F"/>
						</linearGradient>
						<path class="st8" d="M1623.3-1808.6c0,7.5-5,13.6-11.2,13.6h-60.8c-2.4-3.7-3.9-8.4-3.9-13.6v-22.7h75.8L1623.3-1808.6
							L1623.3-1808.6z"/>
						
							<linearGradient id="SVGID_3_" gradientUnits="userSpaceOnUse" x1="1565.6001" y1="14548.9004" x2="1656.8" y2="14548.9004" gradientTransform="matrix(1 0 0 1 0 -16384)">
							<stop  offset="5.376340e-002" style="stop-color:#9E9D98"/>
							<stop  offset="1" style="stop-color:#CCCBC4"/>
						</linearGradient>
						<path class="st9" d="M1630.3-1808.6v-53c0-12.2-8.2-22.1-18.2-22.1h-46.5l0,0h73c10,0,18.2,9.9,18.2,22.1v53
							c0,12.2-8.2,22.1-18.2,22.1h-26.5C1622.2-1786.6,1630.3-1796.4,1630.3-1808.6z"/>
						<path class="st10" d="M1524.6-1883.7h41.1c-5.8,0-11,3.4-14.3,8.5h-26.8c-6.2,0-11.2,6.1-11.2,13.6v21.8h34.1v8.5h-34.1v22.7
							c0,7.5,5,13.6,11.2,13.6h26.8c3.3,5.2,8.5,8.5,14.3,8.5h46.5l0,0h-87.6c-10,0-18.2-9.9-18.2-22.1v-53
							C1506.4-1873.8,1514.6-1883.7,1524.6-1883.7z"/>
						<path class="st10" d="M1551.4-1795h60.8c6.2,0,11.2-6.1,11.2-13.6v-22.7h-75.8v-8.5h75.8v-21.8c0-7.5-5-13.6-11.2-13.6h-60.8
							c3.3-5.2,8.5-8.5,14.3-8.5h46.5c10,0,18.2,9.9,18.2,22.1v53c0,12.2-8.1,22.1-18.1,22.1h-46.5
							C1559.9-1786.5,1554.7-1789.9,1551.4-1795z"/>
					</g>
				</g>
				<g>
					<g>
						<path class="st11" d="M1595.8-1856c2.4,0,4.5,0.8,6,2.2s2.5,3.2,2.5,5.3c0,4.2-3.8,7.5-8.5,7.5h-19.9l17-15H1595.8z"/>
						<polygon class="st12" points="1538.8,-1854.3 1538.8,-1856 1592.9,-1856 1575.9,-1840.9 1538.8,-1840.9 1538.8,-1842.6 
							1540.4,-1842.6 1540.4,-1854.3 						"/>
						<path class="st13" d="M1540.7-1854.3v11.7h-1.9v1.7h27.7c4.7,0,8.5-3.4,8.5-7.5c0-2.1-1-4-2.5-5.3c-1.5-1.4-3.7-2.2-6-2.2
							h-27.7v1.7L1540.7-1854.3L1540.7-1854.3z"/>
						<path class="st14" d="M1540.4-1854.3v11.7h25.4c3.7,0,6.6-2.6,6.6-5.9c0-1.6-0.7-3.1-1.9-4.1c-1.2-1.1-2.9-1.7-4.7-1.7H1540.4
							z"/>
					</g>
					<polygon class="st15" points="1563.7,-1848.8 1560,-1848.8 1560,-1844.6 1561.8,-1846.2 1563.7,-1844.6 					"/>
				</g>
				<g>
					<g>
						<path class="st11" d="M1595.8-1870.7c2.4,0,4.5,0.8,6,2.2s2.5,3.2,2.5,5.3c0,4.2-3.8,7.5-8.5,7.5h-19.9l17-15H1595.8z"/>
						<polygon class="st12" points="1538.8,-1869.1 1538.8,-1870.7 1592.9,-1870.7 1575.9,-1855.7 1538.8,-1855.7 1538.8,-1857.3 
							1540.4,-1857.3 1540.4,-1869.1 						"/>
						<path class="st13" d="M1540.7-1869.1v11.7h-1.9v1.7h27.7c4.7,0,8.5-3.4,8.5-7.5c0-2.1-1-4-2.5-5.3c-1.5-1.4-3.7-2.2-6-2.2
							h-27.7v1.7L1540.7-1869.1L1540.7-1869.1z"/>
						<path class="st14" d="M1540.4-1869.1v11.7h25.4c3.7,0,6.6-2.6,6.6-5.9c0-1.6-0.7-3.1-1.9-4.1c-1.2-1.1-2.9-1.7-4.7-1.7H1540.4
							z"/>
					</g>
					<polygon class="st15" points="1555.1,-1867.1 1551.4,-1867.1 1551.4,-1862.9 1553.2,-1864.5 1555.1,-1862.9 					"/>
				</g>
			</g>
		</g>
		<g>
			<polygon class="st4" points="934.7,-1783.8 988.5,-1779.1 1266.8,-1783.8 1213,-1788.9 			"/>
			<g>
				<g>
					<g>
						<polygon class="st5" points="998.9,-1813.8 988.5,-1778.9 992.5,-1778.9 1004.2,-1813.8 						"/>
						<polygon class="st10" points="1012.5,-1813.8 1004.2,-1813.8 992.5,-1778.9 997.3,-1778.9 						"/>
					</g>
					<g>
						<polygon class="st5" points="945.1,-1818.4 934.7,-1783.6 938.7,-1783.6 950.4,-1818.4 						"/>
						<polygon class="st10" points="958.7,-1818.4 950.4,-1818.4 938.7,-1783.6 943.5,-1783.6 						"/>
					</g>
				</g>
				<g>
					<g>
						<polygon class="st5" points="1202.5,-1823.5 1212.9,-1788.6 1208.9,-1788.6 1197.2,-1823.5 						"/>
						<polygon class="st10" points="1188.9,-1823.5 1197.2,-1823.5 1208.9,-1788.6 1204.1,-1788.6 						"/>
					</g>
					<g>
						<polygon class="st5" points="1256.3,-1818.4 1266.7,-1783.6 1262.7,-1783.6 1251,-1818.4 						"/>
						<polygon class="st10" points="1242.7,-1818.4 1251,-1818.4 1262.7,-1783.6 1257.9,-1783.6 						"/>
					</g>
				</g>
				<g>
					<path class="st16" d="M1166-1986.3h-27.3H952.5l29.1,130.3H1175h27v-94.3C1202-1970.1,1185.8-1986.3,1166-1986.3z"/>
					<path class="st12" d="M952.5-1986.3v130.3h29.1v-101.1C981.6-1973.2,968.6-1986.3,952.5-1986.3L952.5-1986.3z"/>
				</g>
				<path class="st12" d="M1271.8-1814.9v-94.3h-65.3c-14.8,0-26.8,12-26.8,26.8v76h58.2h25.3L1271.8-1814.9z"/>
				<path class="st16" d="M1271.8-1909.2L1271.8-1909.2v94.3c0,4.7-3.8,8.5-8.5,8.5H1238v-69
					C1238-1894.1,1253.1-1909.2,1271.8-1909.2z"/>
				<path class="st17" d="M1022.5-1856h214.3c3.3,0,6,2.7,6,6v36.2h-220.3V-1856z"/>
				<rect x="1022.5" y="-1848.6" class="st18" width="220.3" height="42.1"/>
				<path class="st18" d="M990.1-1909.2L990.1-1909.2c18.7,0,33.8,15.1,33.8,33.8v69h-33.8V-1909.2z"/>
				<path class="st12" d="M942.2-1806.4h48v-102.8h-49.8c-5.6,0-10.1,4.5-10.1,10.1v80.9C930.3-1811.7,935.6-1806.4,942.2-1806.4z"
					/>
			</g>
		</g>
		<g>
			<g>
				
					<linearGradient id="SVGID_4_" gradientUnits="userSpaceOnUse" x1="599.5919" y1="2848.8496" x2="614.1553" y2="2848.8496" gradientTransform="matrix(0.9551 0.2962 0.2962 -0.9551 -66.6607 479.3862)">
					<stop  offset="0" style="stop-color:#FDDEDC"/>
					<stop  offset="0.974" style="stop-color:#FDBCB8"/>
				</linearGradient>
				<path class="st19" d="M1365.1-2064.7c1-0.8-0.4-2.3-1.4-1.5c-1.7,1.4-3.1,3.1-4.1,5l-1-0.4c0.3-2.9,1.4-5.6,3.4-8
					c0.8-1-0.9-2.1-1.7-1.1c-2,2.4-3.2,5.3-3.6,8.3l-0.9-0.3c0-3.5,1.2-6.7,3.5-9.5c0.8-1-0.9-2.1-1.7-1.1c-2.3,2.8-3.6,6.2-3.8,9.8
					l-1.2-0.5c0.1-2.7,1.1-5.2,2.9-7.4c0.8-1-0.9-2.1-1.7-1.1c-2.2,2.7-3.3,6-3.2,9.5l-2.8,10.6l5.9,2.1l5.4-3l0.6-1.6
					c0.1-0.1,0.2-0.3,0.2-0.5c0-0.1,0-0.1,0-0.2l1.7-4.8C1362.4-2062.1,1363.6-2063.5,1365.1-2064.7z"/>
				<path class="st17" d="M1347.7-2052.6l-36.1,30.1l-32.5-42.8c-4.2-5.4-12.3-5.7-17-0.7l0,0c-4,4.4-3.9,11.2,0.3,15.4l44.3,52.2
					c1.6,1.8,4.4,1.8,5.9-0.1l41-52L1347.7-2052.6z"/>
			</g>
			<g>
				
					<linearGradient id="SVGID_5_" gradientUnits="userSpaceOnUse" x1="754.951" y1="2881.54" x2="769.2253" y2="2881.54" gradientTransform="matrix(-1 0 0 -1 2288.8301 796.6)">
					<stop  offset="0" style="stop-color:#FDDEDC"/>
					<stop  offset="0.974" style="stop-color:#FDBCB8"/>
				</linearGradient>
				<path class="st20" d="M1519.7-2091.7c-0.5-1.2,1.4-1.9,1.9-0.7c0.9,2.1,1.3,4.2,1.4,6.3l1.1,0.1c1.1-2.8,1.3-5.6,0.7-8.7
					c-0.3-1.3,1.8-1.5,2-0.2c0.6,3.1,0.4,6.2-0.6,9l0.9,0.1c1.6-3.1,2-6.5,1.3-10c-0.3-1.3,1.8-1.5,2-0.2c0.7,3.6,0.3,7.2-1.2,10.4
					l1.3,0.1c1.2-2.5,1.5-5.1,0.9-7.9c-0.3-1.3,1.8-1.5,2-0.2c0.7,3.4,0.2,6.9-1.6,9.9l-2.4,10.7l-6.2-0.8l-3.4-5.2l0.2-1.6
					c0-0.2,0-0.3,0-0.5c0-0.1,0-0.1,0-0.2l0.7-5.1C1520.9-2088.2,1520.5-2090,1519.7-2091.7z"/>
				<path class="st21" d="M1529.6-2072.9l18.1,43.4c0,0,51.4-27.4,51.5-27.5c9.3-6,18.9,0.8,19.6,8.6c0.7,7.9-70.4,36.6-76,38.9
					c-2.2,0.9-4.7-0.5-5.2-2.8l-14.2-61.4L1529.6-2072.9z"/>
			</g>
			<g>
				<path class="st22" d="M1550.9-1961h-244.1c-1.4,0-2.4-1.1-2.4-2.4v-135.7c0-1.4,1.1-2.4,2.4-2.4h244.1c1.4,0,2.4,1.1,2.4,2.4
					v135.7C1553.3-1962.1,1552.2-1961,1550.9-1961z"/>
			</g>
			<g>
				<rect x="1312.7" y="-2094.3" class="st23" width="232.2" height="125.3"/>
			</g>
			<g>
				<path class="st4" d="M1302.1-1769.3c-28.3-0.5-56.5-0.3-84.8,0.7c-1.6-1.9-4.2-3.2-7.1-2.8c-18.6,2.6-37.5,1-56.1,4
					c-2.6,0.4-2.6,4.8,0,5.2c13.9,2.3,28,1.9,42,2.7c0.2,3.4,2.5,6.5,7.2,6.5c33-0.6,65.9-2.3,98.8-5
					C1309.2-1758.6,1309.4-1769.1,1302.1-1769.3z"/>
				<g>
					<path class="st21" d="M1278-1956.5l-38.5-17l-0.1,2.6c-1,24.8,4.5,49.4,15.9,71.4l13.7,26.5l-3,28l12.1,70.8
						c2.3,0,4.7-0.1,7-0.2l13.4-99.1L1278-1956.5z"/>
					<polygon class="st24" points="1277.9,-1772.3 1285,-1772.5 1293.9,-1768.2 1305,-1767.2 1306.7,-1764.8 1275.6,-1763.3 					
						"/>
				</g>
				<g>
					<path class="st25" d="M1252.6-1952.6l-28.9-30.5l-4.1,8.8c-8.5,18.2-12.1,38.4-10.5,58.4l2.9,36.9l-13.5,24.7l-16.2,70
						c2.2,0.9,4.4,1.7,6.5,2.6l50.7-86.2L1252.6-1952.6z"/>
					<polygon class="st24" points="1181.4,-1782.7 1187.9,-1780.2 1194.5,-1772.7 1204.4,-1767.6 1205,-1764.7 1175.7,-1775.3 					
						"/>
				</g>
				<path class="st12" d="M1263.6-2080.3c-6.6-0.4-13.7,3-18.9,8.8c-4.7,5.3-7.6,11.6-10.4,17.9c-9.5,21.7-29.3,108.2-24.8,115.2h73
					c-5.7-48.9-3.9-75.3-1-100.5c1.1-10.2,1.6-22.8-3.8-32.1C1274.1-2077.2,1269-2080,1263.6-2080.3z"/>
				<g>
					<path class="st15" d="M1288.5-2110.7c3.2-3.5,5.5-7.8,6.6-12.5c0.9-3.8,0.8-8.1-1.7-11s-6.7-3.6-10.4-2.8
						c-3.7,0.8-7,2.9-10.1,4.9c-2.4,1.5-4.8,3.1-7.2,4.6c-1.4,0.9-2.9,1.9-3.9,3.3c-0.9,1.4-1.1,3.5,0,4.8c-5.1,2-7.4,9.2-4.2,13.8
						c1.6,2.4,4.5,4.1,5.1,7c0.8,3.7-2.4,7.5-1.1,11L1288.5-2110.7z"/>
					
						<linearGradient id="SVGID_6_" gradientUnits="userSpaceOnUse" x1="937.4887" y1="2915.842" x2="973.8652" y2="2915.842" gradientTransform="matrix(0.9912 0.1322 0.1322 -0.9912 -57.0848 670.3314)">
						<stop  offset="0" style="stop-color:#FDDEDC"/>
						<stop  offset="0.974" style="stop-color:#FDBCB8"/>
					</linearGradient>
					<path class="st26" d="M1286-2121.8c2.3,0.7,3.5,3.2,3.7,5.6c0.2,2.4-0.4,4.7-0.4,7.1c0,2.4,0.9,5,3,6.1c1,0.5,2.4,0.9,2.7,2
						c0.3,1.5-1.8,2.2-2.9,3.2c-1.8,1.5-1.6,4.3-1.2,6.7c0.4,2.3,0.5,5.2-1.4,6.6c-2.4,1.8-5.8-0.3-8.8-0.5
						c-2.8-0.1-5.4,1.5-7.2,3.7c-1.7,2.2-5.2,13.6-6.1,16.2c-4.9,0.5-10.5-5.6-12.1-12.8l10.5-19.8c-1.6,0.5-3.5-0.2-4.6-1.5
						s-1.3-3.3-0.4-4.8s5.4-3.9,6.5,1.6c0,0,2.7-3.8,3.1-8.5C1271.4-2121.3,1286-2121.8,1286-2121.8z"/>
				</g>
				<g>
					
						<linearGradient id="SVGID_7_" gradientUnits="userSpaceOnUse" x1="3392.0845" y1="-196.0428" x2="3410.2759" y2="-196.0428" gradientTransform="matrix(-4.320000e-002 -0.9991 -0.9991 4.320000e-002 1306.5945 1410.5852)">
						<stop  offset="0" style="stop-color:#FDDEDC"/>
						<stop  offset="0.974" style="stop-color:#FDBCB8"/>
					</linearGradient>
					<path class="st27" d="M1344.7-2004.6l-1.7,6.4l3.7,5.4l1.7,0.4c0.1,0.1,0.3,0.1,0.5,0.2c0.1,0,0.1,0,0.2,0l5.2,1.4
						c1.8,0.8,3.4,2,4.8,3.4c1,1,2.4-0.6,1.5-1.6c-1.7-1.7-3.5-3-5.6-3.9l0.3-1.1c3.1,0,6,1,8.7,2.8c1.2,0.8,2.1-1.1,1-1.9
						c-2.8-1.9-5.8-2.9-9.1-3l0.3-0.9c3.7-0.3,7.2,0.6,10.3,2.7c1.2,0.8,2.1-1.1,1-1.9c-3.2-2.2-6.9-3.2-10.6-3.1l0.4-1.4
						c2.9-0.1,5.6,0.7,8.1,2.3c1.2,0.8,2.1-1.1,1-1.9c-3.1-2.1-6.6-2.9-10.3-2.5L1344.7-2004.6z"/>
					<path class="st28" d="M1344.7-2004.6l-54.5-6.8l-30-48.2c-3.9-6.1-12.4-7.2-17.8-2.4l0,0c-4.7,4.2-5.2,11.4-1.2,16.2l39.6,49.9
						c1.5,2.1,62.7-1.5,62.7-1.5L1344.7-2004.6z"/>
				</g>
			</g>
			<g>
				<path class="st4" d="M1657.9-1772.5c-28.9-0.5-43.7-6.5-72.7-3.5c-0.6-0.8-1.4-1.2-2.3-1.1c-17.4,1.7-34.7,3.2-52,5.7
					c-2.9,0.4-3,7.2,0,7.3c14.2,0.4,28.4,0.2,42.6-0.1c0.7,2,2,3.5,3.8,3.6c31.6,0.5,63.6-1.8,95.1-5.6
					C1677.5-1766.9,1663.2-1772.4,1657.9-1772.5z"/>
				<path class="st15" d="M1639.6-2069.9c-0.9,5.5,5.1,9.8,5.8,15.3c0.5,4.6-3.1,8.9-7.5,10.4s-9.2,0.8-13.6-0.5s-8.7-3.2-13.3-4
					c-4-0.7-8.2-0.7-12.1-1.8c-5.6-1.6-10.3-5.8-12.6-11.1c-2.3-5.3-2.2-11.6,0.4-16.8c-4-4.6-7.4-9.9-8.9-15.8
					c-1.6-5.9-1.2-12.5,1.9-17.8s9.1-9,15.2-8.5c3-8.1,12-13.2,20.6-12.4s16.2,6.9,19.7,14.7c3.5,7.9,3.2,17.2-0.1,25.1
					c3.5,0.2,6.8,2.3,8.5,5.3s1.9,6.9,0.4,10C1642.5-2075.1,1640.1-2072.9,1639.6-2069.9z"/>
				<path class="st17" d="M1582.4-1870.6l27.5-88.5l22-8.4l8,36.7l-0.9-0.9l-37.3,58.2l4.7,22.9l-3.2,69.5c-2.1,0-4.2,0-6.4,0
					L1582.4-1870.6z"/>
				<polygon class="st24" points="1603.2,-1779.4 1596.9,-1779.4 1588.9,-1775.3 1578.8,-1774.2 1577.3,-1772 1605.6,-1771.3 				
					"/>
				<g>
					<path class="st12" d="M1641.6-1921.3l-60.6,24l64.3,57.1l-5.7,5.2l-86.3-58.6l60.9-62.8l45.2-19l3,16.3
						C1665.4-1943.1,1656.6-1927.3,1641.6-1921.3z"/>
					<polygon class="st24" points="1646.3,-1838.3 1641.9,-1833.6 1639.5,-1825 1633.5,-1816.9 1634.1,-1814.2 1653.8,-1834.5 					
						"/>
				</g>
				<g>
					<g>
						
							<linearGradient id="SVGID_8_" gradientUnits="userSpaceOnUse" x1="-33.8301" y1="2647.2322" x2="0.4038" y2="2647.2322" gradientTransform="matrix(-0.9566 0.2914 -0.2914 -0.9566 2357.9236 450.1874)">
							<stop  offset="0" style="stop-color:#FDDEDC"/>
							<stop  offset="0.974" style="stop-color:#FDBCB8"/>
						</linearGradient>
						<path class="st29" d="M1597.3-2115.7c-2.3,0.2-4,2.5-4.6,4.7c-0.6,2.3-0.5,4.7-1,6.9c-0.5,2.3-1.8,4.7-4,5.3
							c-1.1,0.3-2.5,0.4-2.9,1.4c-0.6,1.4,1.3,2.4,2.2,3.6c1.4,1.8,0.7,4.5-0.1,6.7c-0.8,2.2-1.4,4.9,0.1,6.6
							c2,2.2,10.9-1.1,13.8-0.7c0,0,6.1,18.8,6.6,21.5c4.7,1.4,6.4-0.1,9.2-6.7l-4.3-22.3c1.5,0.8,3.4,0.5,4.7-0.6
							c1.3-1,1.9-3,1.3-4.6s-4.5-4.8-6.6,0.3c0,0-1.9-4.1-1.4-8.8C1611.3-2112.5,1597.3-2115.7,1597.3-2115.7z"/>
					</g>
				</g>
				<path class="st25" d="M1597.2-2024.2c1,2.5,1.1,4.9,1.6,8.3c1.3,10.1,2.5,20.3,3.8,30.4c0.7,5.7,1.8,27.8,5.5,32.2
					c5.3,6.3,53.2-10.9,54.3-14.2c1-3-3.8-10.8-5.8-13.2c-8.5-10.6-22.7-16.7-27.5-29.4c-2.6-6.9,1.2-38.7,3-45.9
					c2.8-10.7-7.6-16.5-12.1-16.2c-10.7,0.8-20.6,8.3-25.8,17.4c-2.6,4.7-4.2,10.1-3.8,15.5c0.3,4.2,2.4,8.2,4.8,11.6
					C1596.1-2026.4,1596.8-2025.3,1597.2-2024.2z"/>
				<g>
					
						<linearGradient id="SVGID_9_" gradientUnits="userSpaceOnUse" x1="3411.3784" y1="734.1965" x2="3428.604" y2="734.1965" gradientTransform="matrix(-5.600000e-003 -1 1 -5.600000e-003 801.9208 1428.9003)">
						<stop  offset="0" style="stop-color:#FDDEDC"/>
						<stop  offset="0.974" style="stop-color:#FDBCB8"/>
					</linearGradient>
					<path class="st30" d="M1526.9-2003.9l1.9,6l-3.2,5.3l-1.6,0.5c-0.1,0.1-0.3,0.1-0.5,0.2c-0.1,0-0.1,0-0.2,0l-4.9,1.5
						c-1.6,0.9-3.1,2-4.4,3.5c-0.9,1-2.3-0.5-1.5-1.4c1.5-1.7,3.2-3,5.1-3.9l-0.4-1c-3,0.2-5.7,1.2-8.1,3.1c-1.1,0.8-2.1-1-1-1.8
						c2.5-1.9,5.4-3,8.4-3.3l-0.3-0.9c-3.5-0.1-6.8,0.9-9.6,3.1c-1.1,0.8-2.1-1-1-1.8c2.9-2.2,6.3-3.3,9.9-3.4l-0.5-1.3
						c-2.8,0-5.3,0.9-7.5,2.6c-1.1,0.8-2.1-1-1-1.8c2.8-2.1,6.2-3.1,9.6-2.8L1526.9-2003.9z"/>
					<path class="st31" d="M1526.9-2003.9l51.2-9l26.1-47c3.4-6,11.4-7.4,16.7-3.1l0,0c4.6,3.8,5.4,10.5,1.9,15.3l-35.2,49
						c-1.3,2-59.3,1.5-59.3,1.5L1526.9-2003.9z"/>
				</g>
			</g>
		</g>
	</g>
	<circle class="st23" cx="1420.5" cy="-2097.6" r="1.6"/>
	<polygon class="st32" points="1410.7,-1969 1544.9,-2076.7 1544.9,-2026.2 1469.3,-1969 	"/>
	<polygon class="st32" points="1508.4,-1969 1544.9,-1995.2 1544.9,-1969 	"/>
</g>
<g id="Section6">
</g>
<g id="footer">
</g>
<g>
	<g>
		<g>
			<g class="st33">
				<g class="st34">
					<path class="st35" d="M611-79.2H398.7c-5.1,0-9.3-4.2-9.3-9.3V-215c0-5.1,4.2-9.3,9.3-9.3H611c5.1,0,9.3,4.2,9.3,9.3v126.5
						C620.3-83.4,616.2-79.2,611-79.2z M398.7-222.8c-4.3,0-7.8,3.5-7.8,7.8v126.5c0,4.3,3.5,7.8,7.8,7.8H611c4.3,0,7.8-3.5,7.8-7.8
						V-215c0-4.3-3.5-7.8-7.8-7.8H398.7z"/>
				</g>
				<g class="st34">
					<path class="st35" d="M603.5-173.1H406.3c-2.5,0-4.5-2-4.5-4.5v-35c0-2.5,2-4.5,4.5-4.5h197.3c2.5,0,4.5,2,4.5,4.5v35
						C608-175.1,606-173.1,603.5-173.1z M406.3-215.6c-1.6,0-3,1.3-3,3v35c0,1.6,1.3,3,3,3h197.3c1.6,0,3-1.3,3-3v-35
						c0-1.6-1.3-3-3-3H406.3z"/>
				</g>
				<g class="st34">
					<path class="st35" d="M603.5-92.9H406.3c-2.5,0-4.5-2-4.5-4.5v-14.2c0-2.5,2-4.5,4.5-4.5h197.3c2.5,0,4.5,2,4.5,4.5v14.2
						C608-94.9,606-92.9,603.5-92.9z M406.3-114.6c-1.6,0-3,1.3-3,3v14.2c0,1.6,1.3,3,3,3h197.3c1.6,0,3-1.3,3-3v-14.2
						c0-1.6-1.3-3-3-3H406.3z"/>
				</g>
				<g class="st34">
					<path class="st35" d="M491.9-122.6h-85.2c-2.7,0-4.9-2.2-4.9-4.9v-34.2c0-2.7,2.2-4.9,4.9-4.9h85.2c3,0,5.5,2.5,5.5,5.5v33
						C497.4-125,494.9-122.6,491.9-122.6z M406.7-165.1c-1.9,0-3.4,1.5-3.4,3.4v34.2c0,1.9,1.5,3.4,3.4,3.4h85.2c2.2,0,4-1.8,4-4
						v-33c0-2.2-1.8-4-4-4H406.7z"/>
				</g>
				<g class="st34">
					<path class="st35" d="M603.1-122.6h-86.3c-3,0-5.5-2.5-5.5-5.5v-33c0-3,2.5-5.5,5.5-5.5h86.3c2.7,0,4.9,2.2,4.9,4.9v34.2
						C608-124.8,605.8-122.6,603.1-122.6z M516.8-165.1c-2.2,0-4,1.8-4,4v33c0,2.2,1.8,4,4,4h86.3c1.9,0,3.4-1.5,3.4-3.4v-34.2
						c0-1.9-1.5-3.4-3.4-3.4H516.8z"/>
				</g>
				<g class="st34">
					<path class="st36" d="M605-13.8h-86.3c-3,0-5.5-2.5-5.5-5.5v-33c0-3,2.5-5.5,5.5-5.5H605c2.7,0,4.9,2.2,4.9,4.9v34.2
						C609.9-16,607.7-13.8,605-13.8z M518.8-56.3c-2.2,0-4,1.8-4,4v33c0,2.2,1.8,4,4,4H605c1.9,0,3.4-1.5,3.4-3.4v-34.2
						c0-1.9-1.5-3.4-3.4-3.4H518.8z"/>
				</g>
				<g class="st34">
					<path class="st36" d="M349.3-129.8H263c-3,0-5.5-2.5-5.5-5.5v-32.9c0-3,2.5-5.5,5.5-5.5h86.3c2.7,0,4.9,2.2,4.9,4.9v34.2
						C354.2-132,352-129.8,349.3-129.8z M263-172.2c-2.2,0-4,1.8-4,4v32.9c0,2.2,1.8,4,4,4h86.3c1.9,0,3.4-1.5,3.4-3.4v-34.2
						c0-1.9-1.5-3.4-3.4-3.4H263z"/>
				</g>
				<g class="st34">
					<path class="st35" d="M643.9,31.8h-86.3c-3.1,0-5.5-3.9-5.5-8.9v-56.5c0-5,2.4-8.9,5.5-8.9h86.3c2.7,0,4.9,3.4,4.9,7.8V24
						C648.8,28.4,646.7,31.8,643.9,31.8z M557.6-41.1c-2.2,0-4,3.4-4,7.4v56.5c0,4,1.8,7.4,4,7.4h86.3c1.8,0,3.4-2.9,3.4-6.4v-58.7
						c0-3.5-1.6-6.4-3.4-6.4H557.6z"/>
				</g>
				<g class="st34">
					<path class="st35" d="M418-65.6H284.1c-4.5,0-8.1-4-8.1-8.9V-131c0-4.9,3.6-8.9,8.1-8.9H418c4,0,7.2,3.5,7.2,7.9v58.7
						C425.1-69.1,421.9-65.6,418-65.6z M284.1-138.5c-3.7,0-6.7,3.3-6.7,7.4v56.5c0,4.1,3,7.4,6.7,7.4H418c3.1,0,5.7-2.9,5.7-6.4
						v-58.7c0-3.5-2.6-6.4-5.7-6.4H284.1z"/>
				</g>
				<g class="st34">
					<path class="st36" d="M587.8,89.9h-86.3c-3.1,0-5.5-3.9-5.5-8.9V24.5c0-5,2.4-8.9,5.5-8.9h86.3c2.7,0,4.9,3.4,4.9,7.9v58.7
						C592.7,86.5,590.6,89.9,587.8,89.9z M501.6,17c-2.2,0-4,3.4-4,7.4V81c0,4,1.8,7.4,4,7.4h86.3c1.8,0,3.4-2.9,3.4-6.4V23.4
						c0-3.5-1.6-6.4-3.4-6.4H501.6z"/>
				</g>
			</g>
		</g>
		<g>
			<g>
				<rect x="191.1" y="272.7" class="st37" width="124.5" height="62.7"/>
				<rect x="286.8" y="199.2" class="st37" width="193.8" height="123.5"/>
				<rect x="423.9" y="356.1" class="st37" width="80.2" height="60.2"/>
			</g>
			<g>
				<g>
					<rect x="175.6" y="224.7" class="st38" width="81.5" height="35.8"/>
					<rect x="376.6" y="334.2" class="st38" width="80.2" height="61.4"/>
				</g>
				<g>
					<rect x="297.2" y="207.3" class="st39" width="172.5" height="35.3"/>
					<rect x="297.2" y="249.9" class="st39" width="80.6" height="35.8"/>
					<rect x="387.6" y="249.9" class="st39" width="82.1" height="35.8"/>
					<rect x="297.2" y="292.5" class="st39" width="172.5" height="18.2"/>
				</g>
			</g>
		</g>
	</g>
	<g>
		<path class="st40" d="M524.1,611.9c0,2.3-63.7,13.2-84.9,13.2s-26.5,9.2-61.5,7.1c-13-0.8-43.4-14.3-48.5-14.3
			c-107.6,0-194.9-2.7-194.9-6s87.3-6,194.9-6c38.8,0,85.7-0.6,116.1,0C499.2,606.9,524.1,609.7,524.1,611.9z"/>
		<g>
			<g>
				<g>
					<g>
						<polygon class="st5" points="217.7,578.6 206.5,616.4 210.8,616.4 223.5,578.6 						"/>
						<polygon class="st10" points="232.5,578.6 223.5,578.6 210.8,616.4 216,616.4 						"/>
					</g>
					<g>
						<polygon class="st5" points="159.4,573.5 148.2,611.3 152.5,611.3 165.2,573.5 						"/>
						<polygon class="st10" points="174.2,573.5 165.2,573.5 152.5,611.3 157.7,611.3 						"/>
					</g>
				</g>
				<g>
					<g>
						<polygon class="st5" points="438.4,568.1 449.6,605.8 445.3,605.8 432.6,568.1 						"/>
						<polygon class="st10" points="423.6,568.1 432.6,568.1 445.3,605.8 440.1,605.8 						"/>
					</g>
					<g>
						<polygon class="st5" points="496.7,573.5 507.9,611.3 503.6,611.3 490.9,573.5 						"/>
						<polygon class="st10" points="481.9,573.5 490.9,573.5 503.6,611.3 498.4,611.3 						"/>
					</g>
				</g>
				<g>
					<path class="st16" d="M398.8,391.7h-29.6H167.5L199,532.8h209.5h29.2V430.7C437.8,409.1,420.3,391.7,398.8,391.7z"/>
					<path class="st12" d="M167.5,391.7v141.2H199V423.2C199,405.8,184.9,391.7,167.5,391.7L167.5,391.7z"/>
				</g>
				<path class="st12" d="M513.5,577.3V475.1h-70.7c-16,0-29,13-29,29v82.4h63.1h27.4L513.5,577.3z"/>
				<path class="st16" d="M513.5,475.1L513.5,475.1v102.2c0,5.1-4.1,9.2-9.2,9.2h-27.4v-74.8C476.8,491.5,493.2,475.1,513.5,475.1z"
					/>
				<rect x="243.3" y="532.8" class="st17" width="238.7" height="45.7"/>
				<rect x="243.3" y="540.9" class="st18" width="238.7" height="45.7"/>
				<path class="st18" d="M208.2,475.1L208.2,475.1c20.2,0,36.6,16.4,36.6,36.6v74.8h-36.6V475.1z"/>
				<path class="st12" d="M155.2,586.6h53V475.1h-54.8c-5.6,0-10.1,4.5-10.1,10.1v89.5C143.4,581.3,148.7,586.6,155.2,586.6z"/>
			</g>
			<g>
				<g>
					<g>
						<path class="st21" d="M307.3,454.1c2.9-4.9,6.8-9.2,11.5-12.5c-2.3-2.1-8.1-7.6-8.4-8.4c-0.3-0.9-0.3-32.2-0.2-38.8
							c0.1-3.8-1.2-8-4.5-9.6c-2.6-1.3-5.7-0.6-8.2,0.8c-5.1,3-7.5,9-9.4,14.6c-5.1,15.2,3.2,41.3,3.5,42.2
							C292,443.7,302.6,451.8,307.3,454.1z"/>
						
							<linearGradient id="SVGID_10_" gradientUnits="userSpaceOnUse" x1="307.3247" y1="-16040.5205" x2="341.3023" y2="-16040.5205" gradientTransform="matrix(1 0 0 -1 0 -15587.4004)">
							<stop  offset="0" style="stop-color:#FAE8DC"/>
							<stop  offset="1" style="stop-color:#FAB9AB;stop-opacity:0.9697"/>
						</linearGradient>
						<path class="st41" d="M318.9,441.6l22.4,18.7l-2.3,4.4l-31.6-10.5C307.3,454.1,314.3,441.5,318.9,441.6z"/>
						<g>
							<polygon class="st35" points="341.3,460.2 348.4,476.4 347,478.2 337.9,470.5 339,464.6 							"/>
							<polygon class="st35" points="342.9,474.7 341.3,479.5 337.3,482.2 337.1,481.3 339.9,478.4 341.5,473.5 							"/>
							<polygon class="st35" points="344.6,475.4 344.1,480.5 340.8,484 340.4,483.2 342.5,479.7 343,474.6 							"/>
							<polygon class="st35" points="346.4,476.2 346.9,481.2 344.3,485.3 343.8,484.6 345.1,480.7 344.6,475.6 							"/>
							<polygon class="st35" points="348.4,476.4 348.9,481.5 346.3,485.5 345.7,484.8 347.1,481 346.6,475.9 							"/>
						</g>
					</g>
					<path class="st25" d="M277,360.5c-1.8,0-3.4,0.7-5.1,1.4c-9.1,3.7-18.3,7.4-27.4,11.1c-1.5,0.6-3.1,1.3-4,2.6
						c-0.8,1.2-0.9,2.8-1,4.2c-1.7,38.7,8.4,88,22.2,124.2c18.5,0.3,37.1-7.5,55.8-11c-9.3-25.1-14.2-66.8-4.2-91.7
						c1.8-4.4,1-12.3-0.8-16.7c-0.8-1.9-18.8-17.7-30.1-22.6C280.7,361.2,278.9,360.5,277,360.5z"/>
					<g>
						<path class="st31" d="M257.8,467.9c1.4-6.8,4.3-13.2,8.4-18.8c-3.4-1.6-12.2-5.6-12.9-6.4c-0.7-0.9,0.5-50.6-1.9-58.3
							c-1.3-4.3-4.4-8.7-8.9-9.3c-3.4-0.5-6.8,1.5-9.1,4.1c-4.7,5.4-5.2,13.2-5.2,20.4c0,19.3,6.3,60,7,61
							C236.2,461.8,251.4,467,257.8,467.9z"/>
						
							<linearGradient id="SVGID_11_" gradientUnits="userSpaceOnUse" x1="257.7596" y1="-16045.9004" x2="299.0587" y2="-16045.9004" gradientTransform="matrix(1 0 0 -1 0 -15587.4004)">
							<stop  offset="0" style="stop-color:#FAE8DC"/>
							<stop  offset="1" style="stop-color:#FAB9AB;stop-opacity:0.9697"/>
						</linearGradient>
						<path class="st42" d="M266.2,449.1l32.9,12.9l-1,5.9h-40.3C257.8,467.9,260.9,450.7,266.2,449.1z"/>
						<g>
							
								<linearGradient id="SVGID_12_" gradientUnits="userSpaceOnUse" x1="298.0451" y1="-16058.5215" x2="313.3708" y2="-16058.5215" gradientTransform="matrix(1 0 0 -1 0 -15587.4004)">
								<stop  offset="0" style="stop-color:#FAE8DC"/>
								<stop  offset="1" style="stop-color:#FAB9AB;stop-opacity:0.9697"/>
							</linearGradient>
							<polygon class="st43" points="299.1,461.9 313.4,477.8 312.5,480.3 299.1,475 298,467.9 							"/>
							
								<linearGradient id="SVGID_13_" gradientUnits="userSpaceOnUse" x1="302.3394" y1="-16070.2773" x2="306.4405" y2="-16070.2773" gradientTransform="matrix(1 0 0 -1 0 -15587.4004)">
								<stop  offset="0" style="stop-color:#FAE8DC"/>
								<stop  offset="1" style="stop-color:#FAB9AB;stop-opacity:0.9697"/>
							</linearGradient>
							<polygon class="st44" points="306.4,477.9 306.4,484 302.9,488.7 302.3,487.7 304.4,483.3 304.3,477.1 							"/>
							
								<linearGradient id="SVGID_14_" gradientUnits="userSpaceOnUse" x1="306.4405" y1="-16070.9951" x2="310.0279" y2="-16070.9951" gradientTransform="matrix(1 0 0 -1 0 -15587.4004)">
								<stop  offset="0" style="stop-color:#FAE8DC"/>
								<stop  offset="1" style="stop-color:#FAB9AB;stop-opacity:0.9697"/>
							</linearGradient>
							<polygon class="st45" points="308.7,478.1 310,484.1 307.6,489.4 306.8,488.6 307.9,483.8 306.4,477.8 							"/>
							
								<linearGradient id="SVGID_15_" gradientUnits="userSpaceOnUse" x1="308.735" y1="-16071.3125" x2="313.4667" y2="-16071.3125" gradientTransform="matrix(1 0 0 -1 0 -15587.4004)">
								<stop  offset="0" style="stop-color:#FAE8DC"/>
								<stop  offset="1" style="stop-color:#FAB9AB;stop-opacity:0.9697"/>
							</linearGradient>
							<polygon class="st46" points="311,478.3 313.5,483.9 312.1,489.6 311.2,488.9 311.3,484 308.7,478.3 							"/>
							
								<linearGradient id="SVGID_16_" gradientUnits="userSpaceOnUse" x1="311.101" y1="-16070.8281" x2="315.8329" y2="-16070.8281" gradientTransform="matrix(1 0 0 -1 0 -15587.4004)">
								<stop  offset="0" style="stop-color:#FAE8DC"/>
								<stop  offset="1" style="stop-color:#FAB9AB;stop-opacity:0.9697"/>
							</linearGradient>
							<polygon class="st47" points="313.4,477.8 315.8,483.4 314.4,489.1 313.6,488.4 313.7,483.5 311.1,477.9 							"/>
						</g>
					</g>
				</g>
				<polygon class="st35" points="342.9,474.4 342.1,481.1 343.3,481.1 345,476.8 				"/>
				<g>
					<polygon class="st5" points="394.7,517.7 376.7,509.4 292.9,534.3 359.8,537.2 359.8,548 367.8,569.9 392.8,532.8 					"/>
					<polygon class="st48" points="383.2,617.9 392.8,532.8 362.6,555.7 372.3,618.1 					"/>
					<path class="st10" d="M458.4,548.7c-0.2-0.4-52.7-45.8-52.7-45.8l-17.4-8.9l-5.3,25.9l65,32C448,551.9,458.4,548.7,458.4,548.7
						z"/>
					<path class="st10" d="M261.9,504l6.4,18.4c4.8,13.9,19.9,22.1,35.1,19l84.1-21.2c6.6-1.3,11.3-6.9,11.3-13.2v0
						c0-7.5-6.4-13.5-14.4-13.5l-76.4,0.4L261.9,504z"/>
				</g>
				
					<radialGradient id="SVGID_17_" cx="395.9872" cy="-15819.9131" r="183.1511" gradientTransform="matrix(1 0 0 -1 0 -15587.4004)" gradientUnits="userSpaceOnUse">
					<stop  offset="1.058200e-002" style="stop-color:#EEEBD4"/>
					<stop  offset="1" style="stop-color:#FFD8AD;stop-opacity:0"/>
				</radialGradient>
				<path class="st49" d="M423.6,439.3l158.4-65.6l-43.5-81c-40.9-53.5-124-73-198.7-66.7l-58.2,11.6l70,204.1L423.6,439.3z"/>
				<g>
					<path class="st50" d="M336.8,490h73.9l11-45.2c1-4.2-2.1-8.2-6.4-8.2h-60.3c-3,0-5.7,2.1-6.4,5L336.8,490z"/>
					<path class="st10" d="M339.9,490l11.8-48.4c0.7-3,3.4-5,6.4-5h60.3c2.2,0,4.1,1.1,5.3,2.7L372.9,490H339.9z"/>
					<path class="st48" d="M423.6,439.3c1.1,1.5,1.6,3.5,1.1,5.5l-11,45.2h-40.8L423.6,439.3z"/>
					<path class="st5" d="M306.3,490H370l-3.7,3.7h-63.7C302.6,491.7,304.3,490,306.3,490z"/>
					<path class="st5" d="M413.7,490c0,2.1-1.7,3.7-3.7,3.7h-43.7l3.7-3.7H413.7z"/>
					<path class="st50" d="M302.6,493.8h33.5c2.1,0,3.7-1.7,3.7-3.7h-33.5C304.3,490,302.6,491.7,302.6,493.8z"/>
				</g>
				<g>
					<path class="st15" d="M314.1,341.1c2.5,1.8,6.2,1.8,8.7,0.1c2.6-1.7,3.9-5.1,3.2-8.1c4.9,1.7,10.4-4.3,8.3-9
						c3.1-0.3,5.8-3.2,6-6.3c0.2-3.2-2.2-6.2-5.3-6.9c1.5-3.9,0.4-8.6-2.7-11.5c-3-2.8-7.8-3.6-11.6-1.9c-0.1-5-3.4-9.7-8.1-11.5
						c-4.6-1.8-10.3-0.5-13.7,3.1c-7.7-5-19.6-1.2-23,7.3c-6.3-0.4-12,6.1-10.9,12.3c-3.7-0.1-7.3,2.5-8.5,6c-1.2,3.5,0.1,7.7,3,9.9
						c-4,4.7-0.8,13.3,5.3,14.3c-1.9,1.5-2.4,4.5-1.1,6.5c1.3,2.1,4.2,2.9,6.3,1.9c-0.4,3.3,1.3,6.7,4.2,8.4
						c2.9,1.6,6.7,1.4,9.3-0.6L314.1,341.1z"/>
					<g>
						
							<linearGradient id="SVGID_18_" gradientUnits="userSpaceOnUse" x1="270.9048" y1="-15939.1035" x2="320.4792" y2="-15939.1035" gradientTransform="matrix(1 0 0 -1 0 -15587.4004)">
							<stop  offset="0" style="stop-color:#FAE8DC"/>
							<stop  offset="1" style="stop-color:#FAB9AB;stop-opacity:0.9697"/>
						</linearGradient>
						<path class="st51" d="M315.2,322.3c2.4,1.3,3.2,4.4,2.8,7.1c-0.3,2.7-1.5,5.2-2,7.9c-0.5,2.7-0.2,5.8,1.9,7.5
							c1,0.8,2.5,1.5,2.5,2.8c0,1.7-2.5,2-4,2.9c-2.4,1.3-2.7,4.5-2.9,7.2c-0.1,2.7-0.6,5.9-3.1,7c-3.1,1.5-6.4-1.7-9.7-2.5
							c-3.1-0.8-6.4,0.5-8.9,2.6c-2.4,2.1-8.8,14-10.5,16.7c-5.6-0.6-10.4-8.7-10.6-17l16.3-19.7c-1.9,0.2-3.8-1-4.8-2.7
							c-1-1.7-0.7-4,0.6-5.5c1.3-1.4,6.9-3.2,6.9,3.3c0,0,3.8-3.6,5.4-8.8C298.8,319.6,315.2,322.3,315.2,322.3z"/>
					</g>
				</g>
				<polygon class="st24" points="372.3,618.1 383.2,617.9 397,624.6 414.3,626.1 416.9,629.9 368.6,632.1 				"/>
				<polygon class="st24" points="448,551.9 458.4,548.7 473.5,551.3 490.5,548 494.1,550.9 448.3,566.4 				"/>
			</g>
		</g>
	</g>
	<g>
		<ellipse class="st40" cx="583.6" cy="603.6" rx="32.8" ry="3"/>
		<g>
			<g>
				<polyline class="st52" points="590.7,503.8 584.4,526.1 584.8,549 				"/>
				<line class="st52" x1="573.6" y1="504" x2="584.4" y2="526.1"/>
			</g>
			<g>
				<g>
					<g>
						<path class="st53" d="M557,497.3c6.8,10,14.3,13.4,18.8,10.7l-25-36.7C550.7,474.4,550.8,488.2,557,497.3z"/>
						<path class="st54" d="M550.8,470.7c0,0,0,0.2,0,0.6l25,36.7c0.1-0.1,0.2-0.1,0.3-0.2c4.5-3.1,4.2-11.4-2.8-21.6
							C566.3,476,550.8,470.7,550.8,470.7z"/>
						<path class="st55" d="M570.4,499.6c-1.7-2.5-3.4-4.9-5.1-7.4c-3.4-4.9-6.8-9.8-10.3-14.7c0-0.1-0.2,0-0.1,0.1
							c2.2,3.4,4.4,6.7,6.7,10.1c-2-0.2-4.2-0.3-6.3-0.1c-0.1,0-0.2,0.2-0.1,0.2c2,0.3,4.4,0.3,6.6,0.2c1,1.5,2,3,3.1,4.6
							c1.7,2.5,3.4,4.9,5,7.4c1.7,2.5,3.2,5.1,5.1,7.4c0.1,0.2,0.5-0.1,0.4-0.3C574,504.4,572.1,502.1,570.4,499.6z"/>
						<path class="st55" d="M568.1,496.6c-3.4-0.4-7-0.5-10.6-0.2c-0.1,0-0.1,0.1,0,0.1c3.4,0.4,7,0.5,10.5,0.3
							C568.2,496.8,568.2,496.7,568.1,496.6z"/>
						<path class="st55" d="M567.7,484.5c-0.6,1.3-1.1,2.6-1.6,4c-0.5,1.2-1,2.4-1.2,3.6c0,0.1,0.1,0.1,0.2,0c0.7-1.2,1-2.4,1.4-3.6
							c0.4-1.3,0.9-2.6,1.3-4C567.9,484.4,567.8,484.4,567.7,484.5z"/>
						<path class="st55" d="M574,494c-0.9,2.3-2,4.6-2.6,6.8c0,0.1,0.2,0.1,0.2,0c1.1-2.3,1.7-4.6,2.4-6.9
							C574.1,494,574,494,574,494z"/>
						<path class="st55" d="M573.6,504c-2.7-0.3-5.8-0.3-8.7-0.2c-0.1,0-0.1,0.1-0.1,0.1c2.8,0.3,5.7,0.4,8.7,0.2
							C573.7,504.2,573.8,504,573.6,504z"/>
					</g>
					<g>
						<path class="st53" d="M559,539.1c9.4,10.3,18.3,13,23,9.2l-34.3-37.7C548.2,514.1,550.6,529.8,559,539.1z"/>
						<path class="st54" d="M547.7,509.9c0,0,0,0.3,0.1,0.7l34.3,37.7c0.1-0.1,0.2-0.2,0.3-0.3c4.6-4.2,2.9-13.6-6.7-24.1
							C566.2,513.4,547.7,509.9,547.7,509.9z"/>
						<path class="st55" d="M574.6,539.6c-2.3-2.5-4.6-5.1-6.9-7.6c-4.6-5.1-9.3-10.1-14-15.1c-0.1-0.1-0.2,0.1-0.1,0.1
							c3.1,3.5,6.1,6.9,9.2,10.4c-2.3,0.1-4.8,0.3-7.2,0.9c-0.1,0-0.2,0.2,0,0.2c2.3,0.1,5-0.4,7.5-0.8c1.4,1.6,2.8,3.1,4.2,4.7
							c2.3,2.5,4.6,5.1,6.9,7.6c2.3,2.5,4.4,5.3,7,7.6c0.2,0.2,0.5-0.2,0.4-0.4C579.5,544.4,576.9,542.1,574.6,539.6z"/>
						<path class="st55" d="M571.5,536.5c-3.9,0.1-8,0.6-12,1.4c-0.1,0-0.1,0.2,0,0.2c3.9-0.1,8-0.6,12-1.4
							C571.6,536.7,571.7,536.5,571.5,536.5z"/>
						<path class="st55" d="M569.1,522.8c-0.4,1.6-0.8,3.2-1.2,4.7c-0.3,1.4-0.8,2.9-0.8,4.2c0,0.1,0.2,0.1,0.2,0
							c0.6-1.4,0.8-2.9,1-4.3c0.3-1.6,0.6-3.1,0.8-4.7C569.3,522.7,569.2,522.7,569.1,522.8z"/>
						<path class="st55" d="M577.7,532.6c-0.7,2.7-1.5,5.5-1.8,8.2c0,0.2,0.2,0.1,0.3,0c0.9-2.7,1.2-5.5,1.7-8.2
							C577.9,532.5,577.8,532.6,577.7,532.6z"/>
						<path class="st55" d="M579,544c-3.2,0.1-6.6,0.5-9.9,1.2c-0.1,0-0.1,0.2,0,0.2c3.2-0.1,6.6-0.4,9.9-1.1
							C579.1,544.2,579.1,544,579,544z"/>
					</g>
					<g>
						<path class="st53" d="M611.8,533.8c-6.4,14.3-15.1,20.3-21.4,17.8l23.5-52.2C614.6,503.3,617.6,520.9,611.8,533.8z"/>
						<path class="st54" d="M613.7,498.6c0,0,0.1,0.3,0.2,0.8l-23.5,52.2c-0.1-0.1-0.3-0.1-0.4-0.2c-6.4-2.9-7.8-13.5-1.3-28.1
							C595.2,508.8,613.7,498.6,613.7,498.6z"/>
						<path class="st55" d="M595.3,539.7c1.6-3.5,3.2-7,4.8-10.5c3.2-7,6.4-14,9.7-21c0-0.1,0.2,0,0.2,0.1
							c-2.1,4.8-4.1,9.6-6.2,14.3c2.5-0.7,5.2-1.4,8-1.6c0.1,0,0.3,0.2,0.1,0.2c-2.5,0.9-5.5,1.4-8.3,1.7c-1,2.2-1.9,4.3-2.9,6.5
							c-1.6,3.5-3.2,7-4.7,10.6c-1.6,3.5-2.9,7.2-4.8,10.5c-0.1,0.2-0.6,0-0.5-0.2C591.8,546.6,593.7,543.2,595.3,539.7z"/>
						<path class="st55" d="M597.6,535.4c4.2-1.2,8.8-2.1,13.4-2.7c0.1,0,0.2,0.1,0.1,0.2c-4.2,1.2-8.7,2.1-13.3,2.7
							C597.5,535.7,597.4,535.5,597.6,535.4z"/>
						<path class="st55" d="M595.3,520c1,1.5,1.9,3.1,2.9,4.7c0.9,1.4,1.8,2.8,2.3,4.3c0,0.1-0.2,0.2-0.3,0.1
							c-1.1-1.3-1.8-2.8-2.6-4.2c-0.9-1.6-1.7-3.1-2.5-4.7C595.1,519.9,595.3,519.9,595.3,520z"/>
						<path class="st55" d="M589.6,533.4c1.7,2.7,3.5,5.4,4.8,8.1c0.1,0.2-0.2,0.2-0.3,0.1c-1.9-2.6-3.2-5.4-4.6-8.2
							C589.4,533.4,589.5,533.3,589.6,533.4z"/>
						<path class="st55" d="M592.2,545.9c3.4-1,7.2-1.7,11-2.2c0.1,0,0.2,0.1,0.1,0.2c-3.4,1-7.2,1.9-10.9,2.3
							C592.2,546.2,592,546,592.2,545.9z"/>
					</g>
					<g>
						<path class="st53" d="M604.2,498.3c-4.8,8.3-10.4,11.4-14.1,9.5l17.5-30.2C607.8,480,608.5,490.9,604.2,498.3z"/>
						<path class="st54" d="M607.5,477.1c0,0,0,0.2,0,0.5l-17.5,30.2c-0.1,0-0.2-0.1-0.3-0.1c-3.7-2.1-3.9-8.7,1-17.1
							C595.7,482.1,607.5,477.1,607.5,477.1z"/>
						<path class="st48" d="M593.8,500.9c1.2-2,2.4-4.1,3.6-6.1c2.4-4.1,4.8-8.1,7.2-12.1c0,0,0.1,0,0.1,0.1
							c-1.5,2.8-3.1,5.5-4.7,8.3c1.6-0.3,3.3-0.5,4.9-0.4c0.1,0,0.1,0.1,0.1,0.2c-1.6,0.4-3.4,0.5-5.1,0.5c-0.7,1.2-1.4,2.5-2.1,3.7
							c-1.2,2-2.4,4.1-3.5,6.1c-1.2,2-2.2,4.2-3.6,6.1c-0.1,0.1-0.4,0-0.3-0.2C591.3,504.9,592.6,502.9,593.8,500.9z"/>
						<path class="st55" d="M595.4,498.5c2.6-0.5,5.4-0.8,8.3-0.8c0.1,0,0.1,0.1,0,0.1c-2.6,0.5-5.4,0.8-8.3,0.8
							C595.4,498.6,595.3,498.5,595.4,498.5z"/>
						<path class="st55" d="M595.1,488.9c0.5,1,1,2,1.5,3c0.4,0.9,0.9,1.8,1.1,2.7c0,0.1-0.1,0.1-0.2,0c-0.6-0.9-0.9-1.8-1.3-2.7
							C595.8,491,595.3,489.9,595.1,488.9C594.9,488.9,595,488.9,595.1,488.9z"/>
						<path class="st55" d="M590.7,496.7c0.9,1.7,1.8,3.5,2.4,5.2c0,0.1-0.1,0.1-0.2,0C592,500.3,591.3,498.5,590.7,496.7
							C590.6,496.7,590.7,496.7,590.7,496.7z"/>
						<path class="st55" d="M591.5,504.5c2.1-0.4,4.5-0.6,6.8-0.6c0.1,0,0.1,0.1,0,0.1c-2.1,0.4-4.5,0.7-6.8,0.7
							C591.5,504.7,591.4,504.5,591.5,504.5z"/>
					</g>
					<g>
						<rect x="557.7" y="545.1" class="st56" width="53.7" height="8.6"/>
						<rect x="557.7" y="553.6" class="st5" width="53.7" height="3.7"/>
						<polygon class="st56" points="611.4,600.5 611.4,557.4 557.7,557.4 557.7,579.4 580.6,600.5 						"/>
						<polygon class="st57" points="598.8,600.5 557.7,564.5 557.7,600.5 						"/>
						<polygon class="st58" points="557.7,600.5 557.7,604.3 583.1,604.3 579.1,600.5 						"/>
						<polygon class="st5" points="611.4,600.5 579.1,600.5 583.1,604.3 611.4,604.3 						"/>
					</g>
				</g>
			</g>
		</g>
	</g>
</g>
</svg>
